<?xml version="1.0" encoding="UTF-8" standalone="no"?>
<svg
  xmlns:dc="http://purl.org/dc/elements/1.1/"
  xmlns:cc="http://creativecommons.org/ns#"
  xmlns:rdf="http://www.w3.org/1999/02/22-rdf-syntax-ns#"
  xmlns:svg="http://www.w3.org/2000/svg"
  xmlns="http://www.w3.org/2000/svg"
  xmlns:sodipodi="http://sodipodi.sourceforge.net/DTD/sodipodi-0.dtd"
  xmlns:inkscape="http://www.inkscape.org/namespaces/inkscape"
  version="1.1"
  x="0px"
  y="0px"
  width="60"
  height="60"
  viewBox="133 405 50 60"
>
     <g
     id="g3381"
     transform="translate(48.594288,382.06306)">
     <path
       d="m 102.583,75.777 c -3.298,0 -4.068,2.64 -3.519,6.379 l 2.419,-2.53 1.099,1.21 1.1,-1.21 2.418,2.53 c 0.552,-3.739 -0.218,-6.379 -3.517,-6.379 z"
       id="path3383"
       inkscape:connector-curvature="0"
       style="fill:#f7941e" />
       
    <path
       d="m 116.659,75.777 c -3.298,0 -4.069,2.64 -3.519,6.379 l 2.419,-2.53 1.099,1.21 1.1,-1.21 2.418,2.53 c 0.552,-3.739 -0.218,-6.379 -3.517,-6.379 z"
       id="path3385"
       inkscape:connector-curvature="0"
       style="fill:#f7941e" />
    <path
       d="m 131.793,40.958 c 0,-5.992 -5.117,-11.209 -11.109,-11.209 -4.379,0 -8.741,2.932 -10.455,6.667 -0.747,-0.074 -0.641,-0.041 -0.792,-0.041 -0.087,0 -0.295,0.007 -0.604,0.028 -1.729,-3.716 -5.63,-6.655 -9.999,-6.655 -6.007,0 -11.254,5.202 -11.254,11.209 0,2.248 0.738,4.356 1.907,6.091 -1.011,2.105 -1.163,4.633 -1.163,7.646 0,17.283 21.296,26.802 21.296,26.802 0,0 21.37,-9.52 21.37,-26.802 0,-2.872 -0.566,-5.293 -1.512,-7.337 1.3,-1.79 2.315,-4.019 2.315,-6.399 z"
       id="path3387"
       inkscape:connector-curvature="0"
       style="fill:#ffffff" />
    <circle
       cx="98.834"
       cy="40.958"
       r="6.7080002"
       id="circle3389"
       sodipodi:cx="98.834"
       sodipodi:cy="40.958"
       sodipodi:rx="6.7080002"
       sodipodi:ry="6.7080002"
       style="fill:#f7941e"
       d="m 105.542,40.958 c 0,3.704726 -3.00327,6.708 -6.708,6.708 -3.704727,0 -6.708001,-3.003274 -6.708001,-6.708 0,-3.704726 3.003274,-6.708 6.708001,-6.708 3.70473,0 6.708,3.003274 6.708,6.708 z" /><circle
       cx="98.834"
       cy="40.958"
       r="4.0689998"
       id="circle3391"
       sodipodi:cx="98.834"
       sodipodi:cy="40.958"
       sodipodi:rx="4.0689998"
       sodipodi:ry="4.0689998"
       style="fill:#9f1c20"
       d="m 102.903,40.958 c 0,2.247247 -1.82175,4.069 -4.069,4.069 -2.247247,0 -4.069,-1.821753 -4.069,-4.069 0,-2.247246 1.821753,-4.069 4.069,-4.069 2.24725,0 4.069,1.821754 4.069,4.069 z" /><circle
       cx="95.958"
       cy="38.081001"
       r="1.979"
       id="circle3393"
       sodipodi:cx="95.958"
       sodipodi:cy="38.081001"
       sodipodi:rx="1.979"
       sodipodi:ry="1.979"
       style="fill:#ffffff"
       d="m 97.937,38.081001 c 0,1.092972 -0.886028,1.979 -1.979,1.979 -1.092971,0 -1.979,-0.886028 -1.979,-1.979 0,-1.092971 0.886029,-1.979 1.979,-1.979 1.092972,0 1.979,0.886029 1.979,1.979 z" /><circle
       cx="120.561"
       cy="40.958"
       r="6.7080002"
       id="circle3395"
       sodipodi:cx="120.561"
       sodipodi:cy="40.958"
       sodipodi:rx="6.7080002"
       sodipodi:ry="6.7080002"
       style="fill:#f7941e"
       d="m 127.269,40.958 c 0,3.704726 -3.00328,6.708 -6.708,6.708 -3.70473,0 -6.708,-3.003274 -6.708,-6.708 0,-3.704726 3.00327,-6.708 6.708,-6.708 3.70472,0 6.708,3.003274 6.708,6.708 z" /><circle
       cx="120.561"
       cy="40.958"
       r="4.0679998"
       id="circle3397"
       sodipodi:cx="120.561"
       sodipodi:cy="40.958"
       sodipodi:rx="4.0679998"
       sodipodi:ry="4.0679998"
       style="fill:#9f1c20"
       d="m 124.629,40.958 c 0,2.246694 -1.82131,4.068 -4.068,4.068 -2.2467,0 -4.068,-1.821306 -4.068,-4.068 0,-2.246694 1.8213,-4.068 4.068,-4.068 2.24669,0 4.068,1.821306 4.068,4.068 z" /><circle
       cx="123.438"
       cy="38.081001"
       r="1.979"
       id="circle3399"
       sodipodi:cx="123.438"
       sodipodi:cy="38.081001"
       sodipodi:rx="1.979"
       sodipodi:ry="1.979"
       style="fill:#ffffff"
       d="m 125.417,38.081001 c 0,1.092972 -0.88602,1.979 -1.979,1.979 -1.09297,0 -1.979,-0.886028 -1.979,-1.979 0,-1.092971 0.88603,-1.979 1.979,-1.979 1.09298,0 1.979,0.886029 1.979,1.979 z" /><path
       d="m 133.497,46.583 c 0.813,-1.705 1.269,-3.612 1.269,-5.626 0,-7.229 -5.86,-13.09 -13.09,-13.09 -0.213,0 -0.426,0.007 -0.638,0.017 1.954,-0.796 8.232,-1.659 8.232,-1.659 -2.064,-0.537 -4.834,-0.43 -7.513,-0.026 1.393,-1.866 3.719,-2.833 3.719,-2.833 -4.601,0.327 -11.129,3.694 -12.807,5.241 h -5.947 c -1.668,-1.53 -8.125,-4.816 -12.716,-5.241 0,0 2.31,0.966 3.692,2.833 -2.659,-0.404 -5.411,-0.51 -7.46,0.026 0,0 6.051,0.837 8.087,1.623 -0.189,-0.008 -0.381,-0.014 -0.573,-0.014 -7.248,0 -13.123,5.875 -13.123,13.122 0,1.994 0.447,3.884 1.243,5.576 -1.143,-0.104 -1.878,0.774 -1.878,3.219 0,10.868 7.242,26.011 7.242,26.011 l 2.251,-4.849 c 0.195,0.21 0.393,0.417 0.59,0.619 0.044,0.046 0.088,0.089 0.132,0.135 0.155,0.156 0.31,0.311 0.466,0.464 0.057,0.055 0.113,0.108 0.169,0.164 0.149,0.145 0.299,0.285 0.449,0.426 0.054,0.05 0.108,0.1 0.162,0.15 0.199,0.184 0.399,0.364 0.599,0.541 1.407,1.239 2.816,2.299 4.155,3.209 1.339,0.912 2.613,1.664 3.758,2.293 1.142,0.637 2.167,1.127 3.016,1.519 0.846,0.394 1.531,0.659 1.995,0.842 0.283,0.109 0.486,0.183 0.603,0.224 -0.029,0.016 -0.042,0.023 -0.042,0.023 0,0 0.021,-0.006 0.056,-0.02 0.066,0.023 0.102,0.035 0.102,0.035 0,0 -0.028,-0.016 -0.077,-0.043 0.106,-0.038 0.316,-0.113 0.623,-0.234 0.453,-0.184 1.125,-0.447 1.953,-0.842 0.831,-0.391 1.835,-0.883 2.953,-1.519 1.121,-0.63 2.368,-1.382 3.679,-2.292 1.311,-0.91 2.691,-1.972 4.068,-3.211 0.196,-0.176 0.392,-0.357 0.586,-0.54 0.053,-0.05 0.106,-0.102 0.159,-0.151 0.147,-0.14 0.293,-0.281 0.439,-0.426 0.055,-0.055 0.11,-0.108 0.165,-0.164 0.153,-0.152 0.305,-0.307 0.457,-0.463 0.043,-0.045 0.086,-0.09 0.129,-0.135 0.194,-0.203 0.387,-0.408 0.578,-0.619 l 2.204,4.848 c 0,0 7.09,-15.143 7.09,-26.01 0.001,-1.945 -0.455,-2.898 -1.206,-3.153 z m -3.638,10.251 c -0.219,2.027 -0.771,4.01 -1.552,5.865 -0.39,0.929 -0.847,1.822 -1.333,2.686 -0.24,0.434 -0.516,0.842 -0.77,1.262 -0.267,0.41 -0.549,0.808 -0.82,1.209 -1.126,1.572 -2.358,2.994 -3.603,4.27 -1.245,1.276 -2.501,2.408 -3.7,3.408 -1.2,0.999 -2.337,1.875 -3.369,2.619 -1.035,0.738 -1.952,1.368 -2.72,1.863 -0.77,0.494 -1.38,0.878 -1.804,1.127 -0.293,0.175 -0.491,0.289 -0.585,0.344 -0.105,-0.061 -0.299,-0.17 -0.572,-0.33 -0.432,-0.248 -1.056,-0.632 -1.842,-1.125 -0.786,-0.496 -1.722,-1.126 -2.779,-1.864 -1.054,-0.744 -2.215,-1.62 -3.44,-2.618 -1.224,-1 -2.508,-2.133 -3.78,-3.409 -1.271,-1.274 -2.529,-2.697 -3.679,-4.27 -0.276,-0.401 -0.565,-0.798 -0.838,-1.209 -0.258,-0.419 -0.541,-0.828 -0.786,-1.263 -0.496,-0.863 -0.962,-1.756 -1.361,-2.684 -0.797,-1.855 -1.362,-3.839 -1.585,-5.866 -0.231,-1.981 -0.148,-4.078 0.24,-5.957 2.299,1.985 5.292,3.188 8.569,3.188 5.339,0 9.93,-3.19 11.979,-7.768 2.046,4.559 6.622,7.736 11.943,7.736 3.026,0 5.809,-1.029 8.026,-2.752 0.315,1.768 0.371,3.702 0.161,5.538 z m -9.28,-5.026 c -5.993,0 -10.85,-4.857 -10.85,-10.85 0,6.007 -4.87,10.876 -10.877,10.876 -6.007,0 -10.876,-4.87 -10.876,-10.876 0,-6.007 4.869,-10.877 10.876,-10.877 6.007,0 10.877,4.87 10.877,10.877 0,-5.992 4.857,-10.851 10.85,-10.851 5.993,0 10.85,4.858 10.85,10.851 0,5.992 -4.858,10.85 -10.85,10.85 z"
       id="path3401"
       inkscape:connector-curvature="0"
       style="fill:#9f1c20" /><g
       id="XMLID_2_"><g
         id="g3404"><path
           d="m 110.201,43.375 c 1.491,0.497 3.86,3.063 -0.473,6.512 -4.333,-3.449 -1.964,-6.015 -0.473,-6.512 0.015,0.288 0.026,0.583 0.033,0.88 h 0.88 c 0.007,-0.297 0.018,-0.592 0.033,-0.88 z"
           id="path3406"
           inkscape:connector-curvature="0"
           style="fill:#f7941e" /><path
           d="m 109.729,43.287 c 0.139,0 0.299,0.031 0.473,0.088 -0.015,0.288 -0.026,0.583 -0.033,0.88 h -0.88 c -0.006,-0.297 -0.018,-0.592 -0.033,-0.88 0.173,-0.057 0.334,-0.088 0.473,-0.088 z"
           id="path3408"
           inkscape:connector-curvature="0"
           style="fill:#f7941e" /><path
           d="M 109.256,43.375 C 108.49,27.265 98.4,24.333 98.081,24.243 c 0.38,0.068 12.048,2.16 23.295,0 -0.319,0.09 -10.409,3.022 -11.175,19.132 -0.173,-0.057 -0.334,-0.088 -0.473,-0.088 -0.139,0 -0.299,0.031 -0.472,0.088 z"
           id="path3410"
           inkscape:connector-curvature="0"
           style="fill:#f7941e" /></g><g
         id="g3412" /></g><path
       d="m 109.729,54.232 c 0,0 -1.649,1.65 0,6.708 1.649,-5.058 0,-6.708 0,-6.708 z"
       id="path3414"
       inkscape:connector-curvature="0"
       style="fill:#f7941e" /><path
       d="m 109.729,63.909 c 0,0 -1.649,1.649 0,6.708 1.649,-5.058 0,-6.708 0,-6.708 z"
       id="path3416"
       inkscape:connector-curvature="0"
       style="fill:#f7941e" /><path
       d="m 103.368,62.595 c 0,0 -1.165,2.021 1.742,6.478 0.279,-5.313 -1.742,-6.478 -1.742,-6.478 z"
       id="path3418"
       inkscape:connector-curvature="0"
       style="fill:#f7941e" /><path
       d="m 100.041,55.897 c 0,0 -1.164,2.021 1.742,6.478 0.28,-5.313 -1.742,-6.478 -1.742,-6.478 z"
       id="path3420"
       inkscape:connector-curvature="0"
       style="fill:#f7941e" /><path
       d="m 116.089,62.595 c 0,0 1.165,2.021 -1.742,6.478 -0.279,-5.313 1.742,-6.478 1.742,-6.478 z"
       id="path3422"
       inkscape:connector-curvature="0"
       style="fill:#f7941e" /><path
       d="m 119.417,55.897 c 0,0 1.164,2.021 -1.742,6.478 -0.279,-5.313 1.742,-6.478 1.742,-6.478 z"
       id="path3424"
       inkscape:connector-curvature="0"
       style="fill:#f7941e" /><path
       d="m 93.374,54.874 c 0,0 -0.984,2.115 2.301,6.302 -0.185,-5.318 -2.301,-6.302 -2.301,-6.302 z"
       id="path3426"
       inkscape:connector-curvature="0"
       style="fill:#f7941e" /><path
       d="m 126.105,54.419 c 0,0 0.984,2.115 -2.301,6.301 0.185,-5.317 2.301,-6.301 2.301,-6.301 z"
       id="path3428"
       inkscape:connector-curvature="0"
       style="fill:#f7941e" />

      </g>
    </svg>