<svg xmlns="http://www.w3.org/2000/svg" width="1280" height="960" viewBox="0 0 1280 960" role="img" aria-labelledby="title desc">
  <title id="title">Resident portal placeholder</title>
  <desc id="desc">Placeholder resident portal with timeline and requests.</desc>
  <defs>
    <linearGradient id="bg2" x1="0" y1="0" x2="1" y2="1">
      <stop offset="0%" stop-color="#eaf4f9"/>
      <stop offset="100%" stop-color="#e6f6f1"/>
    </linearGradient>
  </defs>
  <rect width="1280" height="960" fill="url(#bg2)"/>
  <rect x="110" y="90" width="1060" height="780" rx="32" fill="#ffffff" opacity="0.96"/>
  <rect x="160" y="150" width="960" height="90" rx="16" fill="#f3f7fa"/>
  <circle cx="215" cy="195" r="28" fill="#d7e9f5"/>
  <rect x="270" y="175" width="240" height="36" rx="14" fill="#dceaf4"/>
  <rect x="160" y="280" width="500" height="540" rx="22" fill="#f8fbfc" stroke="#dce4ea"/>
  <rect x="700" y="280" width="420" height="250" rx="22" fill="#f8fbfc" stroke="#dce4ea"/>
  <rect x="700" y="560" width="420" height="260" rx="22" fill="#f8fbfc" stroke="#dce4ea"/>
  <circle cx="220" cy="390" r="16" fill="#0f8a70"/>
  <rect x="260" y="370" width="280" height="24" rx="8" fill="#dceaf4"/>
  <rect x="260" y="410" width="220" height="20" rx="8" fill="#e5eef5"/>
  <circle cx="220" cy="510" r="16" fill="#1f6f8b"/>
  <rect x="260" y="490" width="300" height="24" rx="8" fill="#dceaf4"/>
  <rect x="260" y="530" width="200" height="20" rx="8" fill="#e5eef5"/>
  <circle cx="220" cy="630" r="16" fill="#f0b24a"/>
  <rect x="260" y="610" width="260" height="24" rx="8" fill="#dceaf4"/>
  <rect x="260" y="650" width="210" height="20" rx="8" fill="#e5eef5"/>
  <text x="160" y="130" font-family="IBM Plex Sans, sans-serif" font-size="34" fill="#1b2f3b">Resident Portal</text>
</svg>
